# xmcd
#
# Track frame offsets: 
#        150
#        15117
#        29367
#        43825
#        58198
#        71151
#        84461
#        97405
#        106646
#        120952
#        134126
#        146873
#        161826
#        175033
#
# Disc length: 2412 seconds
#
# Revision: 0
# Processed by: cddbd v1.5.2PL0 Copyright (c) Steve Scherf et al.
# Submitted via: ExactAudioCopy v0.99pb4
#
DISCID=c4096a0e
DTITLE=Big Noyd - Illustrious
DYEAR=2008
DGENRE=Hip-Hop
TTITLE0=Snitches
TTITLE1=Posted On The Block
TTITLE2=So Much Trouble feat. Serani
TTITLE3=Heartless
TTITLE4=Money Talk
TTITLE5=Things Done Changed feat. Kira
TTITLE6=Back Up In This Bitch
TTITLE7=The Paper feat. Jay Rush
TTITLE8=Ghetto feat. Joell Ortiz
TTITLE9=It's A Wrap feat. Ric Rude
TTITLE10=Trying To Make It Out feat. 40 Glocc and B.A.M.
TTITLE11=No Where Else To Hide
TTITLE12=Bags To Riches
TTITLE13=Get It Poppin'
EXTD=
EXTT0=
EXTT1=
EXTT2=
EXTT3=
EXTT4=
EXTT5=
EXTT6=
EXTT7=
EXTT8=
EXTT9=
EXTT10=
EXTT11=
EXTT12=
EXTT13=
PLAYORDER=
